# Blender 4.1.1
# www.blender.org
mtllib szekreny2.mtl
o Plane
v -0.786633 -0.187886 0.012194
v 1.213367 -0.187885 0.012193
v -0.786633 1.810928 0.081059
v 1.213367 1.810929 0.081059
vn -0.0000 -0.0344 0.9994
vt 0.000000 0.000000
vt 1.000000 0.000000
vt 1.000000 1.000000
vt 0.000000 1.000000
s 0
f 1/1/1 2/2/1 4/3/1 3/4/1
o Plane.001
v -0.710880 -0.121162 -0.057585
v -0.721601 -0.124879 -2.057553
v -0.716189 1.878828 -0.061274
v -0.726910 1.875110 -2.061242
vn 1.0000 0.0026 -0.0054
vt 0.000000 0.000000
vt 1.000000 0.000000
vt 1.000000 1.000000
vt 0.000000 1.000000
s 0
f 5/5/2 6/6/2 8/7/2 7/8/2
o Plane.003
v 1.226473 -0.178323 0.153328
v 1.298306 -0.167515 -1.845353
v 1.216159 1.821623 0.163772
v 1.287992 1.832432 -1.834908
vn 0.9993 0.0050 0.0359
vt 0.000000 0.000000
vt 1.000000 0.000000
vt 1.000000 1.000000
vt 0.000000 1.000000
s 0
f 9/9/3 10/10/3 12/11/3 11/12/3
o Plane.004
v -0.672391 -0.055395 -1.817905
v -0.683112 -0.059113 -3.817873
v -0.677699 1.944594 -1.821594
v -0.688421 1.940877 -3.821562
vn 1.0000 0.0026 -0.0054
vt 0.000000 0.000000
vt 1.000000 0.000000
vt 1.000000 1.000000
vt 0.000000 1.000000
s 0
f 13/13/4 14/14/4 16/15/4 15/16/4
o Plane.005
v -0.647502 -0.080937 -3.772167
v 1.352498 -0.080936 -3.772167
v -0.647502 1.917877 -3.703301
v 1.352498 1.917878 -3.703301
vn -0.0000 -0.0344 0.9994
vt 0.000000 0.000000
vt 1.000000 0.000000
vt 1.000000 1.000000
vt 0.000000 1.000000
s 0
f 17/17/5 18/18/5 20/19/5 19/20/5
o Plane.006
v 1.328496 -0.161702 -1.801364
v 1.400329 -0.150893 -3.800044
v 1.318181 1.838245 -1.790919
v 1.390014 1.849053 -3.789600
vn 0.9993 0.0050 0.0359
vt 0.000000 0.000000
vt 1.000000 0.000000
vt 1.000000 1.000000
vt 0.000000 1.000000
s 0
f 21/21/6 22/22/6 24/23/6 23/24/6
o Plane.007
v -0.775746 1.922858 -1.952961
v 1.217468 1.910709 -1.788797
v -0.611846 1.883790 -3.945852
v 1.381368 1.871642 -3.781687
vn 0.0077 0.9998 -0.0190
vt 0.000000 0.000000
vt 1.000000 0.000000
vt 1.000000 1.000000
vt 0.000000 1.000000
s 0
f 25/25/7 26/26/7 28/27/7 27/28/7
o Plane.008
v -0.824884 1.736209 -0.053832
v 1.165232 1.839693 0.115659
v -0.654610 1.725407 -2.046542
v 1.335506 1.828891 -1.877050
vn -0.0511 0.9986 -0.0098
vt 0.000000 0.000000
vt 1.000000 0.000000
vt 1.000000 1.000000
vt 0.000000 1.000000
s 0
f 29/29/8 30/30/8 32/31/8 31/32/8
