# Blender 4.1.1
# www.blender.org
mtllib szekreny.mtl
o Plane
v -0.894386 0.009627 -0.628912
v 1.105614 0.009628 -0.628912
v -0.894386 2.008441 -0.560047
v 1.105614 2.008441 -0.560047
vn -0.0000 -0.0344 0.9994
vt 0.000000 0.000000
vt 1.000000 0.000000
vt 1.000000 1.000000
vt 0.000000 1.000000
s 0
f 1/1/1 2/2/1 4/3/1 3/4/1
o Plane.001
v -0.878006 -0.024059 1.445079
v -0.888727 -0.027777 -0.554888
v -0.883314 1.975930 1.441390
v -0.894036 1.972213 -0.558577
vn 1.0000 0.0026 -0.0054
vt 0.000000 0.000000
vt 1.000000 0.000000
vt 1.000000 1.000000
vt 0.000000 1.000000
s 0
f 5/5/2 6/6/2 8/7/2 7/8/2
o Plane.002
v -0.911940 0.064834 1.416128
v 1.087740 0.067356 1.380423
v -0.915213 2.064389 1.374080
v 1.084467 2.066912 1.338374
vn 0.0178 0.0210 0.9996
vt 0.000000 0.000000
vt 1.000000 0.000000
vt 1.000000 1.000000
vt 0.000000 1.000000
s 0
f 9/9/3 10/10/3 12/11/3 11/12/3
o Plane.003
v 0.980071 0.035565 1.358760
v 1.051904 0.046374 -0.639920
v 0.969756 2.035511 1.369204
v 1.041590 2.046320 -0.629476
vn 0.9993 0.0050 0.0359
vt 0.000000 0.000000
vt 1.000000 0.000000
vt 1.000000 1.000000
vt 0.000000 1.000000
s 0
f 13/13/4 14/14/4 16/15/4 15/16/4
o Plane.004
v -0.819744 1.966000 1.427983
v -0.830466 1.962283 -0.571985
v -0.825053 3.965990 1.424294
v -0.835775 3.962272 -0.575674
vn 1.0000 0.0026 -0.0054
vt 0.000000 0.000000
vt 1.000000 0.000000
vt 1.000000 1.000000
vt 0.000000 1.000000
s 0
f 17/17/5 18/18/5 20/19/5 19/20/5
o Plane.005
v -0.907420 2.038654 -0.591232
v 1.092580 2.038654 -0.591232
v -0.907420 4.037468 -0.522367
v 1.092580 4.037468 -0.522367
vn -0.0000 -0.0344 0.9994
vt 0.000000 0.000000
vt 1.000000 0.000000
vt 1.000000 1.000000
vt 0.000000 1.000000
s 0
f 21/21/6 22/22/6 24/23/6 23/24/6
o Plane.006
v 1.007147 2.010591 1.357296
v 1.078980 2.021399 -0.641385
v 0.996832 4.010537 1.367740
v 1.068666 4.021345 -0.630940
vn 0.9993 0.0050 0.0359
vt 0.000000 0.000000
vt 1.000000 0.000000
vt 1.000000 1.000000
vt 0.000000 1.000000
s 0
f 25/25/7 26/26/7 28/27/7 27/28/7
o Plane.007
v -0.941149 1.956069 1.402278
v 1.058530 1.958592 1.366573
v -0.944423 3.955624 1.360230
v 1.055257 3.958147 1.324525
vn 0.0178 0.0210 0.9996
vt 0.000000 0.000000
vt 1.000000 0.000000
vt 1.000000 1.000000
vt 0.000000 1.000000
s 0
f 29/29/8 30/30/8 32/31/8 31/32/8
